PathFileType	3	(X/Y/Z)	F:\ViconData\AntennenMessung\Messung1\Session1\ID09.trc
DataRate	CameraRate	NumFrames	NumMarkers	Units	OrigDataRate	OrigDataStartFrame	OrigNumFrames
120.0	120.0	6	70	mm	120.0	136	1082	
Frame#	Time	Ashort			Along			Atop			A4			Bshort			Blong			Btop			B4			Cshort			Clong			Ctop			C4			Dshort			Dlong			Dtop			D4			Eshort			Elong			Etop			E4			Fshort			Flong			Ftop			F4			Gshort			Glong			Gtop			G4			Hshort			Hlong			Htop			H4			I1			I2			I3			I4			I5			WandAshort			WandAlong			WandAtop			WandA4			WandA15			WandBshort			WandB4			WandB5			WandBtop			WandBlong			WandCshort			WandClong			WandCtop			WandC4			WandC5			Acenter			Aantenna			Bcenter			Bantenna			Ccenter			Cantenna			Dcenter			Dantenna			Ecenter			Eantenna			Fcenter			Fantenna			Gcenter			Gantenna			Hcenter			Hantenna			Icenter			Iantenna			
		X1	Y1	Z1	X2	Y2	Z2	X3	Y3	Z3	X4	Y4	Z4	X5	Y5	Z5	X6	Y6	Z6	X7	Y7	Z7	X8	Y8	Z8	X9	Y9	Z9	X10	Y10	Z10	X11	Y11	Z11	X12	Y12	Z12	X13	Y13	Z13	X14	Y14	Z14	X15	Y15	Z15	X16	Y16	Z16	X17	Y17	Z17	X18	Y18	Z18	X19	Y19	Z19	X20	Y20	Z20	X21	Y21	Z21	X22	Y22	Z22	X23	Y23	Z23	X24	Y24	Z24	X25	Y25	Z25	X26	Y26	Z26	X27	Y27	Z27	X28	Y28	Z28	X29	Y29	Z29	X30	Y30	Z30	X31	Y31	Z31	X32	Y32	Z32	X33	Y33	Z33	X34	Y34	Z34	X35	Y35	Z35	X36	Y36	Z36	X37	Y37	Z37	X38	Y38	Z38	X39	Y39	Z39	X40	Y40	Z40	X41	Y41	Z41	X42	Y42	Z42	X43	Y43	Z43	X44	Y44	Z44	X45	Y45	Z45	X46	Y46	Z46	X47	Y47	Z47	X48	Y48	Z48	X49	Y49	Z49	X50	Y50	Z50	X51	Y51	Z51	X52	Y52	Z52	X53	Y53	Z53	X54	Y54	Z54	X55	Y55	Z55	X56	Y56	Z56	X57	Y57	Z57	X58	Y58	Z58	X59	Y59	Z59	X60	Y60	Z60	X61	Y61	Z61	X62	Y62	Z62	X63	Y63	Z63	X64	Y64	Z64	X65	Y65	Z65	X66	Y66	Z66	X67	Y67	Z67	X68	Y68	Z68	X69	Y69	Z69	X70	Y70	Z70	
136	1.125	-1038.2003	214.43387	-1644.2565	-1109.3519	203.91464	-1599.4285	-1063.729	172.44395	-1625.6107	-1054.1788	262.20224	-1634.9242	-1352.8756	235.0607	1004.1736	-1281.3652	227.1028	1052.7587	-1322.9485	193.91183	1020.9567	-1284.5972	287.99884	1052.3213	814.24377	187.43398	1209.5461	892.73358	179.35016	1178.6057	844.29651	145.62596	1198.2379	860.91626	292.78735	1167.9407	1115.7875	209.88336	-1401.7329	1056.1382	194.10951	-1460.166	1095.0077	162.33922	-1423.8625	1069.8413	238.70364	-1425.7859	-1204.6261	1686.0481	-1563.0583	-1129.15	1688.2664	-1606.0305	-1173.1422	1724.3992	-1581.9381	-1133.7618	1581.0371	-1603.6567	-1239.7476	1699.3469	1119.4896	-1309.255	1698.678	1071.8678	-1270.5378	1736.4669	1096.9449	-1244.8624	1594.0306	1106.0662	988.94763	1664.3022	1162.3203	955.77148	1702.2887	1181.0939	922.66913	1662.1846	1215.0194	939.84814	1659.4049	1159.9564	999.11322	1668.511	-1579.418	1058.9183	1670.1732	-1518.5922	1025.007	1708.0249	-1551.0752	1059.2734	1672.198	-1585.4949	410.96985	1606.3552	-24.012926	411.46591	1608.0128	-108.10111	413.45386	1644.0244	-60.900627	444.19336	1605.0992	-61.070282	363.34293	1610.3644	-61.452808																																														-1068.8488	209.90271	-1624.9467	-1074.1293	248.53749	-1624.262	-1321.7294	231.59465	1025.3346	-1320.4771	270.31406	1029.8333	847.53387	184.00536	1196.4232	850.80847	222.82426	1194.5876	1088.6727	202.71307	-1428.2947	1082.6627	241.01709	-1432.4996	-1171.9019	1687.0098	-1581.6897	-1170.6089	1648.0322	-1581.4309	-1270.9685	1699.0464	1098.099	-1271.4171	1660.0675	1099.3014	953.34637	1705.0654	1182.4661	972.65454	1732.0543	1161.9772	1026.5397	1669.2733	-1551.5233	1028.0809	1630.3063	-1551.9739	411.19183	1607.0969	-61.641907	408.8078	1568.1776	-62.423164
137	1.1333333	-1038.2363	214.48267	-1644.1747	-1109.3418	203.87617	-1599.3641	-1063.5947	172.78946	-1625.8489	-1054.1892	262.18106	-1634.8927	-1352.7952	235.07318	1004.1081	-1281.3357	227.10309	1052.708	-1322.9398	193.94742	1020.9259	-1284.6243	287.93378	1052.4138	814.18805	187.60048	1209.6345	892.17633	178.49524	1179.298	844.28143	145.72275	1198.2334	860.72064	292.8653	1167.4568	1115.7825	209.87422	-1401.7104	1056.1448	194.10519	-1460.1655	1095.019	162.33913	-1423.9197	1069.8436	238.80742	-1425.8621	-1204.5406	1685.9642	-1563.2391	-1129.1315	1688.2487	-1606.0012	-1173.1425	1724.4177	-1581.9435	-1134.0391	1581.0326	-1603.7676	-1239.7678	1699.3638	1119.5038	-1309.207	1698.5833	1071.8402	-1270.5214	1736.4141	1096.9146	-1244.8649	1593.9637	1106.1635	988.966	1664.3159	1162.3311	955.854	1702.2891	1181.1261	922.76624	1662.1609	1215.1106	939.83014	1659.4105	1159.8953	999.13837	1668.4838	-1579.3588	1058.9092	1670.1742	-1518.5862	1025.0183	1708.0414	-1551.0751	1059.2714	1672.1993	-1585.486	410.95877	1606.3384	-24.004707	411.45758	1608.0122	-108.09915	413.44574	1644.035	-60.901291	444.20099	1605.1035	-61.066574	363.43484	1610.2943	-61.35199																																														-1068.6199	209.95045	-1625.027	-1073.845	248.58942	-1624.1725	-1321.6896	231.60388	1025.2629	-1320.4041	270.32666	1029.723	848.02448	183.65002	1196.4725	851.85083	222.42009	1194.6726	1088.6477	202.6994	-1428.307	1082.6012	241.00217	-1432.4709	-1171.8976	1686.953	-1581.7498	-1170.6025	1647.975	-1581.5483	-1270.926	1699.0134	1098.1165	-1271.3477	1660.0359	1099.3691	953.44299	1705.054	1182.4946	972.73804	1732.0327	1161.98	1026.5425	1669.2587	-1551.4954	1028.0739	1630.2911	-1551.9175	411.18204	1607.0876	-61.65012	408.79758	1568.1686	-62.438911
138	1.1416667	-1038.1758	214.38895	-1644.2074	-1109.33	203.9622	-1599.4235	-1063.5704	172.7782	-1625.8621	-1054.177	262.19803	-1634.9316	-1352.7896	235.06871	1004.1371	-1281.3265	227.07584	1052.7527	-1322.9089	194.00029	1020.9427	-1284.6681	288.06595	1052.3411	814.21631	187.40871	1209.5913	892.60474	179.21912	1178.7465	844.3418	145.58325	1198.3317	860.64911	292.97095	1167.369	1115.791	209.88104	-1401.7118	1056.1847	194.09381	-1460.1652	1094.9629	162.30569	-1423.8467	1069.8723	238.80287	-1425.8619	-1204.5449	1685.9622	-1563.243	-1129.1354	1688.2349	-1606.0068	-1173.1368	1724.4186	-1581.9464	-1133.7714	1581.0223	-1603.6393	-1239.7672	1699.3666	1119.5057	-1309.3873	1698.8845	1071.9551	-1270.5006	1736.3934	1096.9091	-1244.979	1593.7693	1106.2782	988.87909	1664.2478	1162.3306	955.79895	1702.3319	1181.1501	922.19598	1662.3354	1214.9495	939.81702	1659.4222	1159.9674	999.13733	1668.5227	-1579.3906	1058.9067	1670.1763	-1518.5957	1025.0131	1708.036	-1551.0691	1059.269	1672.1991	-1585.491	410.97211	1606.3491	-24.009575	411.46082	1608.011	-108.10079	413.45029	1644.0303	-60.90255	444.11411	1605.0051	-61.091343	363.3894	1610.326	-61.443218																																														-1068.5356	209.94009	-1625.099	-1073.6996	248.58855	-1624.3054	-1321.6729	231.58841	1025.3055	-1320.3995	270.30765	1029.7997	847.60748	183.92017	1196.4523	850.9137	222.73315	1194.5494	1088.655	202.69388	-1428.3226	1082.6729	240.99782	-1432.5677	-1171.8994	1686.946	-1581.7557	-1170.6123	1647.9677	-1581.5576	-1271.0726	1699.1498	1098.124	-1271.6711	1660.1749	1099.3955	953.23755	1705.2805	1182.6073	972.73871	1732.2599	1162.2892	1026.5408	1669.2808	-1551.5168	1028.0768	1630.3136	-1551.9672	411.1908	1607.0929	-61.645714	408.81012	1568.1735	-62.428753
139	1.15	-1038.1675	214.29245	-1644.1642	-1109.3351	203.95204	-1599.3955	-1063.5721	172.75822	-1625.8667	-1054.1509	262.20697	-1634.9196	-1352.876	235.01886	1004.2069	-1281.4358	227.11948	1052.4438	-1323.0079	193.87363	1021.0048	-1284.6768	288.09964	1052.2988	814.21057	187.47722	1209.5557	892.60925	179.17204	1178.7195	844.32153	145.67603	1198.2635	860.82898	293.68842	1166.9603	1115.7267	209.5835	-1401.5641	1056.1428	194.12956	-1460.2053	1095.0116	162.35272	-1423.8453	1069.8243	238.6815	-1425.7738	-1204.6082	1686.0176	-1563.085	-1129.1342	1688.2546	-1606.0198	-1173.1425	1724.4269	-1581.9497	-1134.0248	1581.0441	-1603.7925	-1239.7936	1699.4056	1119.5187	-1309.2139	1698.5758	1071.8385	-1270.5287	1736.4287	1096.9382	-1245.6997	1592.913	1110.6743	988.90118	1664.2623	1162.3242	955.81354	1702.2273	1181.104	922.19531	1662.2935	1214.9424	939.84833	1659.3972	1159.9752	999.12469	1668.5271	-1579.397	1058.9077	1670.1783	-1518.5939	1025.0166	1708.043	-1551.0764	1059.2753	1672.1971	-1585.4904	410.98425	1606.3524	-23.997118	411.47241	1608.0282	-108.09922	413.43942	1644.0247	-60.896027	444.1655	1605.077	-61.079189	363.38248	1610.3394	-61.443092																																														-1068.4814	209.88792	-1625.0947	-1073.5925	248.5432	-1624.2913	-1321.7074	231.57243	1025.2521	-1320.371	270.30447	1029.616	847.6438	183.93546	1196.4054	851.01367	222.74385	1194.5209	1088.7634	202.59019	-1428.1006	1082.8118	240.91962	-1432.1542	-1171.8893	1686.9873	-1581.6976	-1170.5848	1648.01	-1581.4352	-1270.9111	1699.0336	1098.146	-1271.3098	1660.056	1099.4049	953.15924	1705.2727	1182.6105	972.61792	1732.2823	1162.2922	1026.536	1669.2841	-1551.5178	1028.0637	1630.3167	-1551.9618	411.20273	1607.1025	-61.644646	408.845	1568.1819	-62.433792
140	1.1583333	-1038.2069	214.50197	-1644.1625	-1109.3165	203.90138	-1599.3834	-1063.569	172.79042	-1625.8625	-1054.1611	262.20731	-1634.927	-1352.8907	235.01865	1004.1843	-1281.3894	227.10002	1052.733	-1322.9232	193.9391	1020.9269	-1284.641	288.12296	1052.2959	814.19446	187.61136	1209.618	892.58911	179.20152	1178.7488	844.31506	145.67847	1198.2211	860.81995	292.86798	1167.5679	1115.7299	209.58919	-1401.5714	1056.1584	194.11404	-1460.166	1095.054	162.34972	-1423.8718	1069.8456	238.80223	-1425.8527	-1204.6254	1686.038	-1563.0963	-1129.127	1688.2788	-1606.0375	-1173.1339	1724.4097	-1581.9436	-1133.7708	1581.0266	-1603.6294	-1239.7642	1699.3575	1119.499	-1309.3229	1698.7766	1071.9185	-1270.5112	1736.4149	1096.9193	-1244.9773	1593.7412	1106.4026	988.90582	1664.2609	1162.3363	955.94202	1702.332	1181.217	922.23077	1662.2423	1215.0303	939.8587	1659.4359	1159.9209	999.13324	1668.5212	-1579.3934	1058.9122	1670.1749	-1518.5878	1025.0038	1708.0391	-1551.0675	1059.2698	1672.1998	-1585.4971	410.98526	1606.359	-24.005959	411.46576	1608.0105	-108.10619	413.45569	1644.0283	-60.899918	444.18689	1605.0811	-61.07716	363.36868	1610.3264	-61.442783																																														-1068.588	209.97292	-1625.0308	-1073.8041	248.61288	-1624.1665	-1321.746	231.56943	1025.3312	-1320.5349	270.28635	1029.8625	847.71747	184.01514	1196.4177	851.1615	222.81987	1194.5924	1088.7599	202.5831	-1428.0989	1082.7645	240.90857	-1432.1255	-1171.8929	1687.0094	-1581.7134	-1170.5997	1648.0316	-1581.4735	-1271.02	1699.0963	1098.1188	-1271.5516	1660.1201	1099.3717	953.39594	1705.2725	1182.6754	972.93469	1732.2498	1162.3909	1026.5361	1669.2793	-1551.5198	1028.0767	1630.3125	-1551.9745	411.20026	1607.098	-61.638062	408.8233	1568.1782	-62.41597
141	1.1666667	-1038.21	214.49489	-1644.1702	-1109.3173	203.9023	-1599.4006	-1063.6396	172.21815	-1625.5021	-1054.1407	262.20779	-1634.9199	-1352.8844	235.07527	1004.1081	-1281.3264	227.09981	1052.7102	-1322.9174	193.99817	1020.9259	-1284.6583	288.0784	1052.3646	814.19977	187.43939	1209.6079	892.62903	179.21002	1178.7158	844.27087	145.69307	1198.2084	860.66211	292.96671	1167.4022	1115.7303	209.60826	-1401.5706	1056.1599	194.08763	-1460.1279	1094.9854	162.31163	-1423.8669	1069.869	238.76631	-1425.8335	-1204.6036	1686.0258	-1563.0958	-1129.1259	1688.2546	-1606.0217	-1173.1333	1724.4153	-1581.9573	-1133.767	1581.0114	-1603.6206	-1239.7756	1699.3754	1119.5009	-1309.261	1698.644	1071.868	-1270.525	1736.4342	1096.9247	-1244.9009	1593.9844	1106.3049	988.87775	1664.2496	1162.3245	955.8606	1702.271	1181.1525	922.18353	1662.2754	1215.0267	939.79626	1659.4249	1159.9152	999.14038	1668.5011	-1579.3778	1058.8987	1670.1652	-1518.5846	1025.0176	1708.0442	-1551.0767	1059.2865	1672.1565	-1585.3787	410.99463	1606.3616	-24.005819	411.46103	1608.0168	-108.10772	413.4549	1644.0288	-60.898506	444.17862	1605.0787	-61.068264	363.36115	1610.3313	-61.455303																																														-1068.8606	209.92894	-1624.8722	-1074.2084	248.55518	-1624.2269	-1321.6929	231.59882	1025.2932	-1320.432	270.31812	1029.7905	847.5929	183.93552	1196.4548	850.96454	222.74875	1194.6752	1088.6995	202.56557	-1428.1416	1082.7153	240.88823	-1432.2113	-1171.884	1686.9918	-1581.704	-1170.5831	1648.0144	-1581.4404	-1270.9554	1699.0471	1098.1267	-1271.4044	1660.0698	1099.3801	953.2442	1705.2838	1182.6445	972.73401	1732.2705	1162.3254	1026.536	1669.2639	-1551.5076	1028.0618	1630.2963	-1551.9408	411.20331	1607.1022	-61.637714	408.83017	1568.1823	-62.416828
